<?xml version="1.0" encoding="UTF-8" standalone="no"?> <svg width="64" height="64" viewBox="0 0 64 64" fill="none" xmlns="http://www.w3.org/2000/svg">
<path d="M55.2199 21.4501H11.3799C11.1147 21.4501 10.8603 21.5554 10.6728 21.743C10.4853 21.9305 10.3799 22.1849 10.3799 22.4501V22.6401C10.3725 22.7099 10.3725 22.7803 10.3799 22.8501C10.3756 22.9033 10.3756 22.9568 10.3799 23.0101C10.4484 23.1168 10.5218 23.2202 10.5999 23.3201C10.6436 23.3574 10.6905 23.3908 10.7399 23.4201C10.799 23.4636 10.8627 23.5005 10.9299 23.5301C11.6119 23.8513 12.1815 24.3702 12.5649 25.0193C12.9483 25.6684 13.1277 26.4177 13.0799 27.1701C13.1462 27.9245 12.9831 28.6814 12.6119 29.3416C12.2408 30.0018 11.6789 30.5346 10.9999 30.8701V30.8701C10.9327 30.8997 10.869 30.9365 10.8099 30.9801C10.7605 31.0093 10.7136 31.0428 10.6699 31.0801C10.5918 31.1799 10.5184 31.2834 10.4499 31.3901C10.4456 31.4433 10.4456 31.4968 10.4499 31.5501C10.4418 31.6232 10.4418 31.697 10.4499 31.7701V32.0001C10.4499 32.2653 10.5553 32.5196 10.7428 32.7072C10.9303 32.8947 11.1847 33.0001 11.4499 33.0001H55.2199C55.9985 33.0325 56.7756 32.9071 57.5045 32.6315C58.2335 32.3559 58.8991 31.9357 59.4615 31.3963C60.0238 30.8568 60.4713 30.2092 60.777 29.4924C61.0827 28.7756 61.2403 28.0043 61.2403 27.2251C61.2403 26.4458 61.0827 25.6746 60.777 24.9577C60.4713 24.2409 60.0238 23.5933 59.4615 23.0539C58.8991 22.5144 58.2335 22.0943 57.5045 21.8186C56.7756 21.543 55.9985 21.4177 55.2199 21.4501V21.4501Z" fill="#0478ED"/>
<path d="M47.84 31H3.99996C3.73475 31 3.48039 31.1054 3.29286 31.2929C3.10532 31.4804 2.99996 31.7348 2.99996 32V32.19C2.99259 32.2598 2.99259 32.3302 2.99996 32.4C2.99569 32.4533 2.99569 32.5068 2.99996 32.56C3.03135 32.6168 3.06819 32.6704 3.10996 32.72C3.14189 32.7733 3.17872 32.8235 3.21996 32.87C3.26367 32.9073 3.31051 32.9408 3.35996 32.97C3.41907 33.0136 3.48279 33.0504 3.54996 33.08C4.23194 33.4013 4.80159 33.9202 5.18498 34.5692C5.56837 35.2183 5.74779 35.9677 5.69996 36.72C5.74779 37.4724 5.56837 38.2217 5.18498 38.8708C4.80159 39.5199 4.23194 40.0387 3.54996 40.36V40.36C3.48279 40.3896 3.41907 40.4265 3.35996 40.47C3.31051 40.4993 3.26367 40.5327 3.21996 40.57C3.17872 40.6165 3.14189 40.6667 3.10996 40.72C3.06819 40.7697 3.03135 40.8232 2.99996 40.88C2.99569 40.9333 2.99569 40.9868 2.99996 41.04C2.99187 41.1131 2.99187 41.1869 2.99996 41.26V41.45C2.99996 41.7152 3.10532 41.9696 3.29286 42.1571C3.48039 42.3447 3.73475 42.45 3.99996 42.45H47.84C48.6186 42.4824 49.3957 42.3571 50.1246 42.0814C50.8535 41.8058 51.5192 41.3857 52.0815 40.8462C52.6439 40.3068 53.0914 39.6592 53.3971 38.9423C53.7028 38.2255 53.8603 37.4543 53.8603 36.675C53.8603 35.8957 53.7028 35.1245 53.3971 34.4077C53.0914 33.6909 52.6439 33.0433 52.0815 32.5038C51.5192 31.9644 50.8535 31.5442 50.1246 31.2686C49.3957 30.993 48.6186 30.8676 47.84 30.9V31Z" fill="#56AAFF"/>
<path d="M47.84 11.9H3.99996C3.73475 11.9 3.48039 12.0053 3.29286 12.1929C3.10532 12.3804 2.99996 12.6348 2.99996 12.9V13.09C2.99259 13.1598 2.99259 13.2302 2.99996 13.3C2.99514 13.3565 2.99514 13.4134 2.99996 13.47C3.02818 13.5263 3.06166 13.5799 3.09996 13.63C3.13506 13.6837 3.17524 13.7339 3.21996 13.78C3.26405 13.8138 3.31088 13.8439 3.35996 13.87C3.41907 13.9135 3.48279 13.9504 3.54996 13.98C4.23194 14.3013 4.80159 14.8201 5.18498 15.4692C5.56837 16.1183 5.74779 16.8676 5.69996 17.62C5.74779 18.3723 5.56837 19.1217 5.18498 19.7708C4.80159 20.4198 4.23194 20.9387 3.54996 21.26V21.26C3.48279 21.2896 3.41907 21.3265 3.35996 21.37C3.31051 21.3992 3.26367 21.4327 3.21996 21.47C3.17872 21.5165 3.14189 21.5667 3.10996 21.62C3.06819 21.6696 3.03135 21.7232 2.99996 21.78C2.99187 21.8531 2.99187 21.9269 2.99996 22C2.99187 22.0731 2.99187 22.1469 2.99996 22.22C2.99996 22.22 2.99996 22.22 2.99996 22.22V22.41C2.99996 22.6752 3.10532 22.9296 3.29286 23.1171C3.48039 23.3046 3.73475 23.41 3.99996 23.41H47.84C48.6186 23.4424 49.3957 23.317 50.1246 23.0414C50.8535 22.7658 51.5192 22.3456 52.0815 21.8062C52.6439 21.2667 53.0914 20.6191 53.3971 19.9023C53.7028 19.1855 53.8603 18.4143 53.8603 17.635C53.8603 16.8557 53.7028 16.0845 53.3971 15.3677C53.0914 14.6508 52.6439 14.0032 52.0815 13.4638C51.5192 12.9243 50.8535 12.5042 50.1246 12.2286C49.3957 11.9529 48.6186 11.8276 47.84 11.86V11.9Z" fill="#56AAFF"/>
<path d="M55.2199 40.5499H11.3799C11.1147 40.5499 10.8603 40.6553 10.6728 40.8428C10.4853 41.0303 10.3799 41.2847 10.3799 41.5499V41.7399C10.3725 41.8097 10.3725 41.8801 10.3799 41.9499C10.3756 42.0032 10.3756 42.0567 10.3799 42.1099C10.4484 42.2166 10.5218 42.3201 10.5999 42.4199C10.6436 42.4572 10.6905 42.4907 10.7399 42.5199C10.799 42.5634 10.8627 42.6003 10.9299 42.6299C11.6119 42.9512 12.1815 43.47 12.5649 44.1191C12.9483 44.7682 13.1277 45.5176 13.0799 46.2699C13.1525 47.0292 12.9924 47.7927 12.6209 48.4589C12.2494 49.1251 11.684 49.6625 10.9999 49.9999V49.9999C10.9327 50.0295 10.869 50.0664 10.8099 50.1099C10.7608 50.136 10.714 50.1661 10.6699 50.1999C10.5917 50.2997 10.5183 50.4031 10.4499 50.5099C10.4451 50.5665 10.4451 50.6233 10.4499 50.6799C10.4425 50.7497 10.4425 50.8201 10.4499 50.8899C10.4499 50.8899 10.4499 50.8899 10.4499 50.8899V51.0799C10.4499 51.3451 10.5553 51.5995 10.7428 51.787C10.9303 51.9745 11.1847 52.0799 11.4499 52.0799H55.2199C55.9985 52.1123 56.7756 51.9869 57.5045 51.7113C58.2335 51.4357 58.8991 51.0155 59.4615 50.4761C60.0238 49.9366 60.4713 49.289 60.777 48.5722C61.0827 47.8554 61.2403 47.0842 61.2403 46.3049C61.2403 45.5256 61.0827 44.7544 60.777 44.0376C60.4713 43.3208 60.0238 42.6732 59.4615 42.1337C58.8991 41.5943 58.2335 41.1741 57.5045 40.8985C56.7756 40.6229 55.9985 40.4975 55.2199 40.5299V40.5499Z" fill="#0478ED"/>
<path d="M55.22 40.5499H52.22C53.1329 39.5042 53.636 38.1631 53.636 36.7749C53.636 35.3867 53.1329 34.0456 52.22 32.9999H55.22C55.9986 33.0323 56.7757 32.9069 57.5046 32.6313C58.2335 32.3557 58.8992 31.9355 59.4615 31.3961C60.0239 30.8566 60.4714 30.209 60.7771 29.4922C61.0827 28.7754 61.2403 28.0042 61.2403 27.2249C61.2403 26.4456 61.0827 25.6744 60.7771 24.9576C60.4714 24.2408 60.0239 23.5932 59.4615 23.0537C58.8992 22.5143 58.2335 22.0941 57.5046 21.8185C56.7757 21.5429 55.9986 21.4175 55.22 21.4499H52.22C52.9447 20.614 53.4139 19.5874 53.5716 18.4923C53.7293 17.3973 53.5689 16.28 53.1094 15.2736C52.6499 14.2671 51.9108 13.414 50.9801 12.8159C50.0494 12.2177 48.9663 11.8998 47.86 11.8999H3.99996C3.73475 11.8999 3.48039 12.0053 3.29286 12.1928C3.10532 12.3803 2.99996 12.6347 2.99996 12.8999V13.0899C2.99259 13.1597 2.99259 13.2301 2.99996 13.2999C2.99514 13.3565 2.99514 13.4133 2.99996 13.4699C3.02818 13.5263 3.06166 13.5798 3.09996 13.6299C3.13506 13.6836 3.17524 13.7339 3.21996 13.7799C3.26405 13.8137 3.31088 13.8438 3.35996 13.8699C3.41907 13.9134 3.48279 13.9503 3.54996 13.9799C4.23194 14.3012 4.80159 14.82 5.18498 15.4691C5.56837 16.1182 5.74779 16.8676 5.69996 17.6199C5.74779 18.3722 5.56837 19.1216 5.18498 19.7707C4.80159 20.4198 4.23194 20.9386 3.54996 21.2599V21.2599C3.48279 21.2895 3.41907 21.3264 3.35996 21.3699C3.31051 21.3992 3.26367 21.4326 3.21996 21.4699C3.17872 21.5164 3.14189 21.5666 3.10996 21.6199C3.06819 21.6695 3.03135 21.7231 2.99996 21.7799C2.99187 21.853 2.99187 21.9268 2.99996 21.9999C2.99187 22.073 2.99187 22.1468 2.99996 22.2199C2.99996 22.2199 2.99996 22.2199 2.99996 22.2199V22.4099C2.99996 22.6751 3.10532 22.9295 3.29286 23.117C3.48039 23.3045 3.73475 23.4099 3.99996 23.4099H10.83C10.8891 23.4534 10.9528 23.4903 11.02 23.5199C11.7019 23.8412 12.2716 24.36 12.655 25.0091C13.0384 25.6582 13.2178 26.4076 13.17 27.1599C13.2307 27.9259 13.0553 28.6922 12.6673 29.3555C12.2793 30.0188 11.6974 30.5474 11 30.8699V30.8699C10.9328 30.8995 10.8691 30.9364 10.81 30.9799H3.99996C3.73475 30.9799 3.48039 31.0853 3.29286 31.2728C3.10532 31.4603 2.99996 31.7147 2.99996 31.9799V32.1699C2.99259 32.2397 2.99259 32.3101 2.99996 32.3799C2.99569 32.4332 2.99569 32.4867 2.99996 32.5399C3.03135 32.5967 3.06819 32.6503 3.10996 32.6999C3.14189 32.7532 3.17872 32.8034 3.21996 32.8499C3.26367 32.8872 3.31051 32.9207 3.35996 32.9499C3.41907 32.9934 3.48279 33.0303 3.54996 33.0599C4.23194 33.3812 4.80159 33.9 5.18498 34.5491C5.56837 35.1982 5.74779 35.9476 5.69996 36.6999C5.74779 37.4522 5.56837 38.2016 5.18498 38.8507C4.80159 39.4998 4.23194 40.0186 3.54996 40.3399V40.3399C3.48279 40.3695 3.41907 40.4064 3.35996 40.4499C3.31051 40.4792 3.26367 40.5126 3.21996 40.5499C3.17872 40.5964 3.14189 40.6466 3.10996 40.6999C3.06819 40.7495 3.03135 40.8031 2.99996 40.8599C2.99569 40.9132 2.99569 40.9667 2.99996 41.0199C2.99187 41.093 2.99187 41.1668 2.99996 41.2399V41.4299C2.99996 41.6951 3.10532 41.9495 3.29286 42.137C3.48039 42.3245 3.73475 42.4299 3.99996 42.4299H10.83C10.8891 42.4734 10.9528 42.5103 11.02 42.5399C11.7019 42.8612 12.2716 43.38 12.655 44.0291C13.0384 44.6782 13.2178 45.4276 13.17 46.1799C13.2544 46.9637 13.0903 47.7543 12.7009 48.4398C12.3115 49.1253 11.7165 49.6711 11 49.9999V49.9999C10.9328 50.0295 10.8691 50.0664 10.81 50.1099C10.7032 50.1668 10.6113 50.2481 10.5418 50.3471C10.4724 50.4461 10.4272 50.5602 10.41 50.6799C10.4026 50.7497 10.4026 50.8201 10.41 50.8899C10.41 50.8899 10.41 50.8899 10.41 50.8899V51.0799C10.41 51.3451 10.5153 51.5995 10.7029 51.787C10.8904 51.9745 11.1447 52.0799 11.41 52.0799H55.22C55.9986 52.1123 56.7757 51.9869 57.5046 51.7113C58.2335 51.4357 58.8992 51.0155 59.4615 50.4761C60.0239 49.9366 60.4714 49.289 60.7771 48.5722C61.0827 47.8554 61.2403 47.0842 61.2403 46.3049C61.2403 45.5256 61.0827 44.7544 60.7771 44.0376C60.4714 43.3208 60.0239 42.6732 59.4615 42.1337C58.8992 41.5943 58.2335 41.1741 57.5046 40.8985C56.7757 40.6229 55.9986 40.4975 55.22 40.5299V40.5499ZM51.62 36.7799C51.6173 37.7807 51.2179 38.7396 50.5093 39.4463C49.8007 40.153 48.8408 40.5499 47.84 40.5499H6.61996C7.4018 39.4464 7.82171 38.1273 7.82171 36.7749C7.82171 35.4225 7.4018 34.1034 6.61996 32.9999H47.84C48.8425 32.9999 49.8039 33.3982 50.5128 34.107C51.2217 34.8159 51.62 35.7774 51.62 36.7799ZM59 27.2199C59 27.7163 58.9022 28.2078 58.7122 28.6664C58.5223 29.1251 58.2438 29.5418 57.8928 29.8928C57.5418 30.2438 57.1251 30.5222 56.6665 30.7122C56.2079 30.9021 55.7164 30.9999 55.22 30.9999H14C14.7818 29.8964 15.2017 28.5773 15.2017 27.2249C15.2017 25.8725 14.7818 24.5534 14 23.4499H55.22C56.2208 23.4499 57.1807 23.8468 57.8893 24.5535C58.5979 25.2602 58.9973 26.2191 59 27.2199V27.2199ZM51.62 17.6699C51.62 18.6724 51.2217 19.6339 50.5128 20.3428C49.8039 21.0517 48.8425 21.4499 47.84 21.4499H6.61996C7.4018 20.3464 7.82171 19.0273 7.82171 17.6749C7.82171 16.3225 7.4018 15.0034 6.61996 13.8999H47.84C48.8408 13.8999 49.8007 14.2968 50.5093 15.0035C51.2179 15.7102 51.6173 16.6691 51.62 17.6699V17.6699ZM55.22 50.0999H14C14.7818 48.9964 15.2017 47.6773 15.2017 46.3249C15.2017 44.9725 14.7818 43.6534 14 42.5499H55.22C55.7321 42.5235 56.2441 42.6016 56.7251 42.7794C57.206 42.9573 57.6458 43.2311 58.0176 43.5842C58.3893 43.9373 58.6854 44.3624 58.8877 44.8336C59.09 45.3047 59.1943 45.8121 59.1943 46.3249C59.1943 46.8377 59.09 47.3451 58.8877 47.8162C58.6854 48.2874 58.3893 48.7125 58.0176 49.0656C57.6458 49.4188 57.206 49.6926 56.7251 49.8704C56.2441 50.0482 55.7321 50.1263 55.22 50.0999V50.0999Z" fill="black"/>
</svg>
