<?xml version="1.0" encoding="utf-8"?>
<!-- Generator: Adobe Illustrator 23.0.2, SVG Export Plug-In . SVG Version: 6.00 Build 0)  -->
<svg version="1.1" id="Layer_1" xmlns="http://www.w3.org/2000/svg" xmlns:xlink="http://www.w3.org/1999/xlink" x="0px" y="0px"
	 viewBox="0 0 903.7595 271.3379" enable-background="new 0 0 903.7595 271.3379" xml:space="preserve">
<g>
	<path d="M76.6033,236.3842c-1.5049-1.6104-2.292-3.71-2.2168-5.9126c0.2909-8.5845,1.4215-15.4266,2.9772-20.8933
		c-5.0947,0.7932-10.9344,1.3344-17.4867,1.4147v49.4595c0,5.5234,4.4785,10,10,10c5.5234,0,10-4.4766,10-10v-21.9247
		C78.6424,238.0923,77.5222,237.3672,76.6033,236.3842z"/>
	<path d="M56.543,210.993c-7.6597-0.094-14.3361-0.8215-20-1.8389v51.2985c0,5.5234,4.4805,10,10,10c5.5244,0,10-4.4766,10-10
		V210.993z"/>
	<path d="M32.0519,114.5948L14.876,199.0092c0,0,15.0137,9,43.334,9c7.728,0,14.4571-0.6725,20.1687-1.6472
		c4.3287-12.3787,10.8525-16.373,13.0576-17.4026c0.7515-0.5106,1.5743-0.864,2.4367-1.0522
		c-3.2949-3.4635-5.3322-8.1342-5.3322-13.2808c0-5.1495,2.0396-9.8229,5.3379-13.287l-9.5025-46.704
		c5.7219,7.2368,12.2732,19.9091,16.6918,41.9423c1.55-0.5836,3.1857-0.9893,4.8945-1.155
		c-0.0667-9.3864,0.3304-17.9227,1.1971-25.5834c-11.851-32.0905-28.7242-36.7964-32.6375-37.4614
		c-1.7139-0.4287-8.958-2.1235-16.3135-2.1235c-7.3545,0-14.5986,1.6948-16.3125,2.1235
		c-5.1572,0.8765-32.8262,8.7563-41.8398,77.1099c-0.4688,3.5591,2.0352,6.8247,5.5947,7.2939
		c3.5566,0.4702,6.8242-2.0356,7.2939-5.5947C17.0808,139.826,25.1516,123.2792,32.0519,114.5948z"/>
	<path d="M79.7097,64.261c0-11.8741-9.6259-21.5-21.5-21.5c-11.8741,0-21.5,9.6259-21.5,21.5c0,11.8741,9.6259,21.5,21.5,21.5
		C70.0838,85.761,79.7097,76.1352,79.7097,64.261z M45.7228,72.3719h24.9731c-2.5878,4.1916-7.2096,7-12.4865,7
		C52.9324,79.3719,48.3106,76.5635,45.7228,72.3719z"/>
	<path d="M440.154,105.3279c0.4698-1.1971,0.9608-2.3877,1.4827-3.567h3.3107c-1.2861,2.7933-2.4214,5.6657-3.4113,8.5905
		c0.1768,1.1472,0.269,2.3218,0.269,3.5177c0,4.8323-1.5013,9.3189-4.0573,13.0247c-0.3559,2.9507-0.5596,5.9124-0.5596,8.8671
		c0,0.4944,0.0255,0.9676,0.0357,1.4534c7.4999,3.4868,20.0848,13.5316,27.3096,42.3583
		c9.5652,4.1774,20.8417,5.9938,32.4946,5.9938c3.8301,0,7.6188-0.1989,11.3206-0.6102c-3.3016-2.3145-5.424-6.1893-5.2997-10.5159
		c1.1533-40.2061,9.0195-67.292,23.3799-80.5049c6.4528-5.9386,12.6512-7.6404,16.3806-8.0862
		c-4.0862-4.787-6.5613-10.9886-6.5613-17.7609c0-4.6546,1.17-9.0399,3.2263-12.8827c-6.0562-3.9008-11.5933-5.7045-15.2588-6.5315
		c-5.9564,8.6444-15.9192,14.3251-27.1877,14.3251c-11.2686,0-21.2314-5.6807-27.1877-14.3251
		c-6.2279,1.4049-17.8673,5.6141-28.2457,18.1707c-5.8877,7.1232-10.443,15.776-13.6621,25.9175
		C433.4799,95.1705,437.8955,99.7031,440.154,105.3279z"/>
	<path d="M434.1882,135.7609c0-1.6494,0.0617-3.3063,0.1707-4.9664c-1.7255,1.5869-3.6941,2.9117-5.8418,3.9166
		c2.3076,0.349,4.1738,0.8075,5.6768,1.3009C434.1936,135.9272,434.1882,135.8459,434.1882,135.7609z"/>
	<path d="M467.9214,197.5307c0.6455,4.7817-2.7178,9.1968-7.499,9.8433c-0.3916,0.0527-0.7881,0.0791-1.1787,0.0791h-0.001
		c-1.8621,0-3.6062-0.5992-5.0414-1.6187l10.6219,53.5641c0,6.5937,6.6035,11.9394,14.748,11.9394
		c8.1475,0,14.7539-5.3457,14.7539-11.9394v-70.8708c-10.8406-0.2593-20.6186-2.0835-28.9434-5.3669
		C466.3585,187.5392,467.2164,192.314,467.9214,197.5307z"/>
	<path d="M505.9074,239.7704l9.2116-52.5793c-0.0156-0.0005-0.031-0.0002-0.0466-0.0007c-0.2654-0.0076-0.5245-0.0383-0.7853-0.0624
		c-4.5912,0.8044-9.4536,1.2777-14.5558,1.3997v70.8708c0,6.5937,6.6064,11.9394,14.7528,11.9394
		c8.1445,0,14.751-5.3457,14.751-11.9394l1.8648-9.4046c-14.6639-3.6674-22.7463-8.6755-23.2688-9.0062L505.9074,239.7704z"/>
	<path d="M497.0282,59.9991c16.5673,0,30-13.4317,30-30c0-16.5664-13.4327-29.9991-30-29.9991c-16.5674,0-30,13.4327-30,29.9991
		C467.0282,46.5674,480.4608,59.9991,497.0282,59.9991z M516.4376,40.3243c-4.0224,6.5154-11.2067,10.8809-19.4093,10.8809
		s-15.3868-4.3655-19.4093-10.8809H516.4376z"/>
	<path d="M378.3247,28.0732c0-12.4268-10.0723-22.5-22.5-22.5c-12.4258,0-22.5,10.0732-22.5,22.5c0,12.4267,10.0742,22.5,22.5,22.5
		C368.2523,50.5732,378.3247,40.4999,378.3247,28.0732z M341.9151,36.8243h27.8186c-2.8826,4.6692-8.0311,7.7976-13.9093,7.7976
		S344.7976,41.4935,341.9151,36.8243z"/>
	<path d="M315.5132,135.3029l5.7642,28.3312c0.497-0.8088,0.8498-1.7122,1.0336-2.6738
		C320.4181,150.48,318.0528,142.0576,315.5132,135.3029z"/>
	<path d="M378.3676,207.4531c-0.3906,0-0.7861-0.0269-1.1758-0.0786c-4.7842-0.647-8.1475-5.062-7.502-9.8433
		c2.7283-20.1884,7.7273-33.8229,13.1807-43.0324V86.2333c3.5547,10.3987,6.8002,28.369,6.611,59.243
		c4.6583-5.0753,9.1242-7.6089,12.3152-8.8679c0.9814-0.4067,2.1733-0.8104,3.6204-1.1728
		c-0.0184-0.9828-0.0381-1.9628-0.064-2.9279c-5.7784-4.1821-9.548-10.9766-9.548-18.6387c0-6.1663,2.4438-11.7692,6.408-15.9034
		c-2.911-16.4879-7.7543-28.274-14.5154-35.2255c-4.1035-4.2188-8.032-5.692-10.5286-6.191
		c-0.647-0.1757-1.3245-0.2777-2.0271-0.2777h-38.6348c-0.7083,0-1.3911,0.1033-2.0425,0.2817
		c-2.499,0.498-6.406,1.9639-10.5132,6.1866c-6.246,6.4218-10.8571,16.9656-13.8188,31.5334
		c4.2354,2.9319,9.1066,7.5211,13.8676,14.6962c1.2357-9.9141,2.9638-17.197,4.7784-22.5235v30.7618
		c5.9668,11.7256,11.3197,28.3297,14.4229,51.8616c0.6982,5.3032-3.0469,10.186-8.3496,10.8848
		c-0.4219,0.0562-0.8516,0.0845-1.2754,0.0845c-1.7346,0-3.3739-0.4714-4.7979-1.2891v21.7539l0.0176,0.0864l-0.0176,0.0106v57.5184
		c0,6.8301,5.5371,12.3633,12.3633,12.3633c6.8281,0,12.3652-5.5332,12.3652-12.3633V157.5144h4.6348v100.6043
		c0,6.8301,5.5371,12.3633,12.3633,12.3633c6.8281,0,12.3652-5.5332,12.3652-12.3633v-51.9253
		C381.5467,206.9944,380.0017,207.4529,378.3676,207.4531z"/>
	<path d="M782.658,28.0732c0-12.4268-10.0723-22.5-22.5-22.5c-12.4258,0-22.5,10.0732-22.5,22.5c0,12.4267,10.0742,22.5,22.5,22.5
		C772.5857,50.5732,782.658,40.4999,782.658,28.0732z M746.249,36.8243h27.8186c-2.8826,4.6692-8.0311,7.7976-13.9093,7.7976
		S749.1317,41.4935,746.249,36.8243z"/>
	<path d="M782.7414,183.2125c-0.2236,0.0132-0.4502,0.0195-0.6729,0.0195c-6.0244,0.001-11.0205-4.7139-11.373-10.7339
		c-2.5167-43.0186,3.0398-71.3851,16.5084-84.3411v-1.9238c0.1612,0.4716,0.3214,0.9647,0.4811,1.4678
		c5.5696-5.1352,11.1088-6.5602,14.569-6.8873c-2.6938-7.7983-6.1013-13.8361-10.2229-18.0737
		c-4.1035-4.2188-8.032-5.692-10.5286-6.191c-0.647-0.1757-1.3245-0.2777-2.0271-0.2777h-38.6348
		c-0.7083,0-1.3911,0.1033-2.0425,0.2817c-2.499,0.498-6.406,1.9639-10.5132,6.1866c-5.7064,5.8671-10.0442,15.1848-13.0106,27.8582
		c3.6788,4.1772,5.9174,9.6517,5.9174,15.6423c0,8.105-4.0917,15.27-10.3157,19.5455c-0.0196,0.4146-0.0358,0.837-0.0539,1.2552
		h1.6792c0.293-0.0269,0.5889-0.043,0.8877-0.043c0.2471,0,0.4912,0.0151,0.7363,0.0327l0.1738,0.0103
		c0.3594,0,0.7119,0.0239,1.0615,0.0645c4.051,0.38,7.9128,2.0322,11.3015,4.7787c0.6921-22.5279,3.4539-36.6439,6.45-45.4384
		v52.9538c7.2267,11.7574,10.3529,31.4037,9.065,57.4861c-0.2455,4.9623-4.1758,8.8825-9.065,9.1915v52.0415
		c0,6.8301,5.5371,12.3633,12.3633,12.3633c6.8281,0,12.3652-5.5332,12.3652-12.3633V157.5144h4.6348v100.6043
		c0,6.8301,5.5371,12.3633,12.3633,12.3633c6.8281,0,12.3652-5.5332,12.3652-12.3633v-76.1061
		C785.8313,182.7042,784.322,183.1201,782.7414,183.2125z"/>
	<path d="M179.805,196.8862c-1.1301-22.8862,1.1357-40.8221,6.5895-52.8174v-35.8699c2.5426,5.2881,4.9253,13.6339,6.1307,26.3077
		c0.1204-0.1315,0.2378-0.269,0.3598-0.3973c3.9082-4.1045,8.6807-6.5288,13.8037-7.0112c0.2793-0.0332,0.6328-0.0571,0.9932-0.0571
		l0.1143-0.0067c-0.2173-1.6218-0.4545-3.2046-0.7173-4.7375c-3.8997-4.2258-6.2876-9.8666-6.2876-16.0566
		c0-1.4233,0.1332-2.8154,0.3749-4.1703c-2.2445-4.8182-4.9459-8.7242-8.1078-11.6952c-5.6106-5.2722-11.092-6.1788-13.9075-6.2455
		c-0.1611-0.01-0.3213-0.0245-0.4849-0.0245h-38.635c-0.1685,0-0.3335,0.0146-0.4995,0.0252
		c-2.8188,0.0696-8.2915,0.9811-13.8931,6.2438c-11.0846,10.415-16.5394,32.2612-16.2821,65.0308
		c7.4003,0.5798,13.6374,5.3386,16.3391,11.9232c-1.53-32.5438,2.3116-50.1972,6.6071-59.1309v88.1155
		c4.1746,5.9536,8.3859,16.3224,8.9902,34.1599c0.0752,2.2021-0.7119,4.3018-2.2168,5.9121
		c-1.5049,1.6099-3.5459,2.5381-5.749,2.6123l-0.2822,0.0049c-0.2505,0-0.4974-0.0144-0.7422-0.0359v19.2603
		c0,6.8301,5.5371,12.3633,12.3635,12.3633c6.8279,0,12.365-5.5332,12.365-12.3633v-90.2714h4.635v90.2714
		c0,6.8301,5.5371,12.3633,12.363,12.3633c6.8284,0,12.3655-5.5332,12.3655-12.3633v-52.6325
		C182.7141,204.3543,180.0073,200.9749,179.805,196.8862z"/>
	<path d="M181.8486,55.9064c0-12.4268-10.0723-22.5-22.5-22.5c-12.4258,0-22.5,10.0732-22.5,22.5s10.0742,22.5,22.5,22.5
		C171.7763,78.4064,181.8486,68.3332,181.8486,55.9064z M145.439,64.8243h27.8186c-2.8826,4.6692-8.0311,7.7976-13.9093,7.7976
		S148.3217,69.4935,145.439,64.8243z"/>
	<path d="M283.5437,210.993v49.4595c0,5.5234,4.4785,10,10,10c5.5234,0,10-4.4766,10-10v-51.2984
		C297.8798,210.1716,291.2035,210.8991,283.5437,210.993z"/>
	<path d="M280.2097,210.993c-7.6597-0.094-14.3361-0.8215-20-1.8389v51.2985c0,5.5234,4.4805,10,10,10c5.5244,0,10-4.4766,10-10
		V210.993z"/>
	<path d="M250.4993,200.0493v3.7319c1.3672,0.4053,2.85,0.8063,4.4458,1.1924
		C252.9381,203.9048,251.3569,202.1562,250.4993,200.0493z"/>
	<path d="M235.8395,127.041h3.6618c0.293-0.0269,0.5889-0.043,0.8877-0.043c0.2471,0,0.4912,0.0151,0.7363,0.0327l0.1738,0.0103
		c0.3594,0,0.7119,0.0239,1.0615,0.0645c1.791,0.168,3.5436,0.5928,5.238,1.2385c2.6884-5.9829,5.489-10.4379,8.1199-13.7491
		l-3.3226,16.3296c1.2969,0.9152,2.5404,1.9661,3.7,3.1844c10.0635,10.5732,14.5869,32.2808,13.0811,62.7769
		c-0.2455,4.9614-4.1743,8.881-9.0621,9.1913c6.0395,1.1264,13.3019,1.9321,21.7617,1.9321c28.3203,0,43.333-9,43.333-9
		l-17.1669-84.3737c6.8842,8.7067,14.9719,25.2687,19.0973,56.5515c0.4316,3.271,3.2246,5.6514,6.4365,5.6514
		c0.2832,0,0.5693-0.0186,0.8574-0.0566c3.5596-0.4692,6.0635-3.7349,5.5947-7.2939
		c-9.0137-68.3535-36.6826-76.2334-41.8398-77.1099c-1.7139-0.4287-8.958-2.1235-16.3135-2.1235
		c-7.3545,0-14.5986,1.6948-16.3125,2.1235c-2.387,0.4056-9.5969,2.317-17.5471,11.0247c0.1117,0.9312,0.1758,1.8768,0.1758,2.8376
		C248.1917,115.1998,243.1933,123.0129,235.8395,127.041z"/>
	<path d="M303.3763,64.261c0-11.8741-9.6259-21.5-21.5-21.5c-11.8741,0-21.5,9.6259-21.5,21.5c0,11.8741,9.6259,21.5,21.5,21.5
		C293.7505,85.761,303.3763,76.1352,303.3763,64.261z M269.3898,72.3719h24.9731c-2.5877,4.1916-7.2096,7-12.4865,7
		S271.9776,76.5635,269.3898,72.3719z"/>
	<path d="M201.6829,149.6958v38.2523h45.6162v-38.252c3.1582,6.2703,7.0215,19.5839,5.6973,46.3903
		c-0.1768,3.5854,2.5859,6.6357,6.1719,6.813c0.1094,0.0054,0.2178,0.0078,0.3252,0.0078c3.4434,0,6.3154-2.7031,6.4873-6.1792
		c1.4619-29.6001-2.7578-50.4902-12.2022-60.4126c-3.3945-3.566-7.4424-5.623-11.7856-6.0312
		c-0.228-0.0262-0.459-0.0432-0.6938-0.0432h-0.1113c-0.2666-0.0125-0.5303-0.0428-0.7988-0.0428
		c-0.2456,0-0.4868,0.0164-0.7256,0.0428h-30.3447c-0.2388-0.0265-0.48-0.0428-0.7256-0.0428c-0.2686,0-0.5322,0.0304-0.7988,0.0428
		h-0.1123c-0.2349,0-0.4658,0.0169-0.6934,0.0432c-4.3433,0.4084-8.3906,2.4654-11.7852,6.0311
		c-9.4443,9.9224-13.6641,30.8125-12.2021,60.4126c0.1719,3.4761,3.0439,6.1792,6.4873,6.1792c0.1074,0,0.2168-0.0024,0.3252-0.0078
		c3.5859-0.1772,6.3486-3.2275,6.1719-6.813C194.6615,169.2796,198.5247,155.966,201.6829,149.6958z"/>
	<path d="M247.2991,190.9481h-45.6162v69.168c0,5.7285,4.6455,10.375,10.3779,10.375c5.7266,0,10.373-4.6465,10.373-10.375V210.7
		h4.1133v49.416c0,5.7285,4.6465,10.375,10.377,10.375c5.7285,0,10.375-4.6465,10.375-10.375V190.9481z"/>
	<path d="M224.4912,126.7404c11.3218,0,20.5-9.1782,20.5-20.5s-9.1782-20.5-20.5-20.5s-20.5,9.1782-20.5,20.5
		S213.1693,126.7404,224.4912,126.7404z M236.9779,114.979c-2.5877,4.1916-7.2096,7-12.4865,7s-9.8988-2.8084-12.4865-7H236.9779z"
		/>
	<path d="M415.9891,231.4017c-6.312-0.1943-11.7696-1.0186-16.2657-2.0491v32.7526c0,4.4911,3.6407,8.1338,8.1329,8.1338
		c4.4921,0,8.1328-3.6426,8.1328-8.1338V231.4017z"/>
	<path d="M421.6199,231.4018v30.7034c0,4.4911,3.6426,8.1338,8.1348,8.1338c4.4902,0,8.1328-3.6426,8.1328-8.1338v-32.7526
		C433.391,230.3832,427.9327,231.2076,421.6199,231.4018z"/>
	<path d="M398.8053,113.8693c0,11.0457,8.9543,20,20,20c11.0457,0,20-8.9543,20-20c0-11.0457-8.9543-20-20-20
		C407.7596,93.8693,398.8053,102.8235,398.8053,113.8693z M431.2919,121.5386c-2.5878,4.1915-7.2096,7-12.4865,7
		c-5.277,0-9.8988-2.8085-12.4866-7H431.2919z"/>
	<path d="M434.0788,139.1447c-1.6506-0.6194-4.0087-1.2437-7.3078-1.6464c-2.2833-0.3701-5.1118-0.699-7.9649-0.699
		c-2.8527,0-5.6808,0.3287-7.964,0.6987c-3.3078,0.4034-5.6698,1.0297-7.3215,1.6505
		c-7.3975,2.5953-24.7344,13.4712-30.8581,58.7842c-0.4248,3.147,1.7813,6.043,4.9277,6.4683
		c3.1592,0.4233,6.0439-1.7817,6.4688-4.9282c2.475-18.315,6.7908-29.9195,11.0947-37.2598
		c-3.9179,18.1152-8.7675,43.7718-8.7675,59.7878c0,0,12.0682,6.9493,32.4192,6.9493s32.4191-6.9493,32.4191-6.9493
		c0-16.0167-4.8506-41.6747-8.7691-59.79c4.3047,7.3401,8.6213,18.9449,11.0967,37.262c0.3896,2.8857,2.8574,4.981,5.6914,4.9805
		c0.2559,0,0.5156-0.0171,0.7773-0.0522c3.1465-0.4253,5.3525-3.3213,4.9277-6.4683
		C458.822,152.5971,441.4702,141.733,434.0788,139.1447z"/>
	<path d="M133.0447,236.0014c0.0596,0,0.1201-0.001,0.1807-0.0029c2.8984-0.0981,5.168-2.5273,5.0693-5.4248
		c-1.082-31.9189-14.0459-38.356-15.5205-38.9849c-0.0071-0.0031-0.0146-0.0038-0.0217-0.0068
		c-0.6736-0.5155-1.5042-0.8345-2.4128-0.8345h-1.9186c-3.0416,2.0031-6.675,3.1778-10.5814,3.1778s-7.5397-1.1747-10.5812-3.1778
		h-1.9188c-0.9172,0-1.7544,0.3253-2.4312,0.8496l-0.0034-0.0083c-1.4746,0.6289-14.4385,7.0659-15.5205,38.9849
		c-0.0986,2.8975,2.1709,5.3267,5.0693,5.4248c0.0605,0.002,0.1211,0.0029,0.1807,0.0029c2.8174,0,5.1475-2.2349,5.2441-5.0723
		c0.3254-9.5986,1.7866-16.2104,3.4609-20.7246v52.9629c0,4.1421,3.3574,7.5,7.5,7.5s7.5-3.3579,7.5-7.5v-23.9993h3v23.9993
		c0,4.1421,3.3574,7.5,7.5,7.5s7.5-3.3579,7.5-7.5V210.121c1.666,4.5093,3.1333,11.1442,3.4609,20.8081
		C127.8972,233.7665,130.2273,236.0014,133.0447,236.0014z"/>
	<path d="M107.8398,159.3275c-8.4494,0-15.299,6.8496-15.299,15.299s6.8496,15.299,15.299,15.299s15.299-6.8496,15.299-15.299
		S116.2892,159.3275,107.8398,159.3275z M116.7583,180.7859c-1.8484,2.994-5.1497,5-8.9189,5c-3.7693,0-7.0706-2.006-8.9189-5
		H116.7583z"/>
	<path d="M515.1857,183.7924c0.0879,0.0029,0.1748,0.0039,0.2627,0.0039c0.2286,0,0.4532-0.0167,0.6777-0.0336l7.4372-42.4493
		c-1.1691-4.5247-0.7449-9.476,1.6037-13.9362c1.0157-1.9291,2.3199-3.6034,3.8164-5.0274
		c-0.3665,0.5557-0.7113,1.1326-1.028,1.7339c-5.2121,9.8984-1.4142,22.144,8.4833,27.3557
		c5.7078,3.0054,12.19,2.9988,17.6601,0.5684c-5.8336,4.3791-13.8868,5.3054-20.7705,1.6808
		c-3.2819-1.7281-5.8467-4.2714-7.6195-7.2383l-16.0596,91.6644c0,0,19.4922,12.334,54,12.334
		c17.8855,0,31.7249-3.313,40.9196-6.5051v-69.0344c-0.46,1.6484-1.2939,3.1831-2.4648,4.4995
		c-2.0234,2.2754-4.8125,3.626-7.8525,3.8037c-0.2236,0.0132-0.4502,0.0195-0.6729,0.0195
		c-6.0244,0.001-11.0205-4.7139-11.373-10.7339c-0.3452-5.9001-0.533-11.5146-0.575-16.8617
		c-3.0435-0.5201-5.9376-1.7562-8.4319-3.6285c2.639,1.1725,5.5093,1.7758,8.4205,1.7504
		c-0.0343-28.2143,4.2505-48.5035,12.7927-60.566c-6.3349-4.149-11.6248-4.1393-12.7915-4.0781
		c-0.2085,0.0114-0.4117,0.0398-0.616,0.0649c-0.0514-0.0011-0.1013-0.0078-0.153-0.0078h-1.172
		c-4.4547,3.3954-10.0099,5.4171-16.0306,5.4171s-11.5759-2.0217-16.0306-5.4171h-1.171c-0.0517,0-0.1017,0.0067-0.1532,0.0078
		c-0.2043-0.0251-0.4075-0.0535-0.6161-0.0649c-1.4209-0.0762-8.8936-0.0884-16.9473,7.3232
		c-13.6592,12.5679-21.1572,38.8447-22.2832,78.1006C506.3048,179.5068,510.2169,183.6498,515.1857,183.7924z"/>
	<path d="M561.5486,253.4259c-9.205-0.1309-17.3173-1.1026-24.26-2.4637l1.3391,10.7268c0,5.1231,5.1309,9.2754,11.459,9.2754
		c6.3291,0,11.4619-4.1523,11.4619-9.2754V253.4259z"/>
	<path d="M565.7488,253.4259v8.2631c0,5.1231,5.1328,9.2754,11.4619,9.2754c6.3281,0,11.46-4.1523,11.46-9.2754l1.3391-10.7268
		C583.0669,252.3234,574.9543,253.2951,565.7488,253.4259z"/>
	<path d="M563.6487,92.0884c13.2548,0,24-10.7452,24-24s-10.7452-24-24-24s-24,10.7452-24,24S550.3939,92.0884,563.6487,92.0884z
		 M578.1349,77.2053c-3.0023,4.863-8.3644,8.1212-14.4866,8.1212c-6.1221,0-11.4843-3.2582-14.4865-8.1212H578.1349z"/>
	<path d="M652.805,196.8862c-1.2993-26.3123,1.8937-46.0743,9.2562-57.7946v-30.8927c2.3843,4.9588,4.6288,12.6033,5.8932,23.9866
		c3.4764-2.9286,7.4804-4.6868,11.7344-5.0873c0.2793-0.0332,0.6328-0.0571,0.9932-0.0571l0.1748-0.0103
		c0.2451-0.0176,0.4893-0.0327,0.7363-0.0327c0.2998,0,0.5947,0.0156,0.8867,0.043h0.984c-0.0859-0.6413-0.1717-1.283-0.2646-1.9104
		c-5.7109-4.3315-9.4078-11.1863-9.4078-18.8904c0-2.6674,0.4495-5.2302,1.2656-7.6249c-1.854-3.2635-3.9634-6.0152-6.3319-8.2407
		c-5.6106-5.2722-11.092-6.1788-13.9075-6.2455c-0.1611-0.01-0.3213-0.0245-0.4849-0.0245h-38.635
		c-0.1685,0-0.3335,0.0146-0.4995,0.0252c-2.8188,0.0696-8.2915,0.9811-13.8931,6.2438
		c-12.8926,12.1138-18.1768,39.6772-15.7051,81.9258c0.249,4.252,3.7744,7.5332,7.9785,7.5327c0.1572,0,0.3164-0.0044,0.4746-0.0137
		c4.4111-0.2578,7.7773-4.043,7.5195-8.4536c-2.0559-35.14,1.9263-53.871,6.3965-63.1682v150.029
		c0,6.8301,5.5371,12.3633,12.3635,12.3633c6.8279,0,12.365-5.5332,12.365-12.3633v-90.2714h4.635v90.2714
		c0,6.8301,5.5371,12.3633,12.363,12.3633c6.8284,0,12.3655-5.5332,12.3655-12.3633v-52.1392
		C657.0837,205.8693,653.0537,201.9125,652.805,196.8862z"/>
	<path d="M657.5152,55.9064c0-12.4268-10.0723-22.5-22.5-22.5c-12.4258,0-22.5,10.0732-22.5,22.5s10.0742,22.5,22.5,22.5
		C647.4429,78.4064,657.5152,68.3332,657.5152,55.9064z M621.106,64.8243h27.8186c-2.8826,4.6692-8.0311,7.7976-13.9093,7.7976
		S623.9886,69.4935,621.106,64.8243z"/>
	<path d="M848.0963,239.0014l-0.2773-0.0044c-2.208-0.0747-4.249-1.0029-5.7539-2.6128c-1.5049-1.6104-2.292-3.71-2.2168-5.9126
		c0.6877-20.2928,6.0427-30.9194,10.703-36.3739v-85.8989c4.1397,8.6098,7.8563,25.3194,6.7518,55.6447
		c3.4716-5.1343,9.3474-8.5159,15.9984-8.5159c0.0663,0,0.1302,0.0093,0.1963,0.0099c0.2493-32.7317-5.2056-54.5551-16.2826-64.963
		c-5.6106-5.2722-11.092-6.1788-13.9075-6.2455c-0.1611-0.01-0.3213-0.0245-0.4849-0.0245h-38.635
		c-0.1685,0-0.3335,0.0146-0.4995,0.0252c-2.8188,0.0696-8.2915,0.9811-13.8931,6.2438
		c-12.8926,12.1138-18.1768,39.6772-15.7051,81.9258c0.249,4.252,3.7744,7.5332,7.9785,7.5327c0.1572,0,0.3164-0.0044,0.4746-0.0137
		c4.4111-0.2578,7.7773-4.043,7.5195-8.4536c-2.0559-35.14,1.9263-53.871,6.3965-63.1682v150.029
		c0,6.8301,5.5371,12.3633,12.3635,12.3633c6.8279,0,12.365-5.5332,12.365-12.3633v-90.2714h4.635v90.2714
		c0,6.8301,5.5371,12.3633,12.363,12.3633c6.8284,0,12.3655-5.5332,12.3655-12.3633V238.631
		C849.7758,238.8701,848.9521,239.0014,848.0963,239.0014z"/>
	<path d="M846.0052,55.9064c0-12.4268-10.0723-22.5-22.5-22.5c-12.4258,0-22.5,10.0732-22.5,22.5s10.0742,22.5,22.5,22.5
		C835.9329,78.4064,846.0052,68.3332,846.0052,55.9064z M809.606,64.8243h27.8186c-2.8826,4.6692-8.0311,7.7976-13.9093,7.7976
		S812.4886,69.4935,809.606,64.8243z"/>
	<path d="M674.6829,190.9481v69.168c0,5.7285,4.6455,10.375,10.3779,10.375c5.7266,0,10.373-4.6465,10.373-10.375V210.7h4.1133
		v49.416c0,5.7285,4.6465,10.375,10.377,10.375c5.7285,0,10.375-4.6465,10.375-10.375v-69.168H674.6829z"/>
	<path d="M732.4935,202.9072c3.4434,0,6.3154-2.7031,6.4873-6.1792c1.4619-29.6001-2.7578-50.4902-12.2021-60.4126
		c-3.3945-3.566-7.4424-5.623-11.7856-6.0312c-0.228-0.0262-0.459-0.0432-0.6938-0.0432h-0.1113
		c-0.2666-0.0125-0.5303-0.0428-0.7988-0.0428c-0.2456,0-0.4868,0.0164-0.7256,0.0428h-30.3447
		c-0.2388-0.0265-0.48-0.0428-0.7256-0.0428c-0.2686,0-0.5322,0.0304-0.7988,0.0428h-0.1123c-0.2349,0-0.4658,0.0169-0.6934,0.0432
		c-4.3433,0.4084-8.3906,2.4654-11.7852,6.0311c-9.4443,9.9224-13.6641,30.8125-12.2021,60.4126
		c0.1719,3.4761,3.0439,6.1792,6.4873,6.1792c0.1074,0,0.2168-0.0024,0.3252-0.0078c3.5859-0.1772,6.3486-3.2275,6.1719-6.813
		c-1.3242-26.8068,2.5391-40.1204,5.6973-46.3906v38.2523h45.6162v-38.252c3.1582,6.2703,7.0215,19.5839,5.6973,46.3903
		c-0.1768,3.5854,2.5859,6.6357,6.1719,6.813C732.2776,202.9047,732.386,202.9072,732.4935,202.9072z"/>
	<path d="M676.9911,106.2404c0,11.3218,9.1782,20.5,20.5,20.5s20.5-9.1782,20.5-20.5s-9.1782-20.5-20.5-20.5
		S676.9911,94.9186,676.9911,106.2404z M709.9778,114.979c-2.5877,4.1916-7.2096,7-12.4865,7s-9.8988-2.8084-12.4866-7H709.9778z"/>
	<path d="M888.2359,191.5888c-0.0071-0.0031-0.0146-0.0038-0.0217-0.0068c-0.6736-0.5155-1.5042-0.8345-2.4128-0.8345h-1.9186
		c-3.0416,2.0031-6.675,3.1778-10.5814,3.1778s-7.5397-1.1747-10.5812-3.1778h-1.9188c-0.9172,0-1.7544,0.3253-2.4312,0.8496
		l-0.0034-0.0083c-1.4746,0.6289-14.4385,7.0659-15.5205,38.9849c-0.0986,2.8975,2.1709,5.3267,5.0693,5.4248
		c0.0605,0.002,0.1211,0.0029,0.1807,0.0029c2.8174,0,5.1475-2.2349,5.2441-5.0723c0.3254-9.5986,1.7866-16.2104,3.4609-20.7246
		v52.9629c0,4.1421,3.3574,7.5,7.5,7.5s7.5-3.3579,7.5-7.5v-23.9993h3v23.9993c0,4.1421,3.3574,7.5,7.5,7.5s7.5-3.3579,7.5-7.5
		V210.121c1.666,4.5093,3.1333,11.1442,3.4609,20.8081c0.0967,2.8374,2.4268,5.0723,5.2441,5.0723
		c0.0596,0,0.1201-0.001,0.1807-0.0029c2.8984-0.0981,5.168-2.5273,5.0693-5.4248
		C902.6744,198.6547,889.7105,192.2177,888.2359,191.5888z"/>
	<path d="M873.3015,159.3275c-8.4494,0-15.299,6.8496-15.299,15.299s6.8496,15.299,15.299,15.299s15.299-6.8496,15.299-15.299
		S881.7509,159.3275,873.3015,159.3275z M873.3013,185.7859c-3.7692,0-7.0706-2.006-8.9189-5h17.8379
		C880.3719,183.7799,877.0706,185.7859,873.3013,185.7859z"/>
</g>
</svg>
