<?xml version="1.0" encoding="utf-8"?>
<!-- Generator: Adobe Illustrator 23.0.2, SVG Export Plug-In . SVG Version: 6.00 Build 0)  -->
<svg version="1.1" id="Layer_1" xmlns="http://www.w3.org/2000/svg" xmlns:xlink="http://www.w3.org/1999/xlink" x="0px" y="0px"
	 viewBox="0 0 139.4015 304.983" enable-background="new 0 0 139.4015 304.983" xml:space="preserve">
<g>
	<path d="M109.1406,118.9167l-5.0004,30.6272l-2.5-3.5v-27.7143H69.7236v27.7143l-2.5,3.5l-5.0388-30.8629
		c-5.8905,1.3439-10.3311,6.8401-15.3657,13.0815c-10.6839,13.2463-19.4431,22.2725-34.1484,17.3188L11.2305,41.6748
		c3.72-1.2422,6.4109-5.7276,6.2705-15.4621C17.3335,14.5992,8.3721,0,8.3721,0s-8.5374,14.8529-8.3697,26.465
		c0.1396,9.6946,2.9379,14.104,6.6669,15.2611l1.4302,106.6405c-2.8831,0.354-5.4708,2.2633-6.5408,5.1772
		c-1.5234,4.1475,0.6035,8.7451,4.7505,10.2686c0.676,0.2482,1.3443,0.4755,2.0067,0.6872l1.8841,140.4835l4.56-0.0661
		l-1.8666-139.2191c2.6702,0.5505,5.2265,0.8147,7.6669,0.8147c18.2827-0.0019,30.2357-14.2125,38.0755-23.9151v16.1382
		l20.5878,2.5582v3H58.6358v3.325l16.7656,2.0833v2.4667H58.6358v4.8354l11.9878,1.4896v1.8H58.6358v4.5328
		c4.0986,0.8151,17.304,3.2815,27.0456,3.2815c9.7422,0,22.9472-2.4662,27.0462-3.2814v-4.5329h-11.9873v-1.8l11.9873-1.4896
		v-4.8354H95.9625v-2.4667l16.7651-2.0833v-3.3251H92.1403v-3l20.5873-2.5582v-16.5704
		c5.0961,8.8868,10.3875,26.1472,10.6745,55.7154c0.0425,4.3916,3.6157,7.9219,7.998,7.9219c0.0264,0,0.0527,0,0.0791,0
		c4.418-0.043,7.9648-3.6592,7.9219-8.0781C138.8852,144.5954,123.6434,122.5569,109.1406,118.9167z"/>
	<path d="M79.0436,253.4093l0.4341-6.5669c-3.2202-7.7118-15.5242-17.8322-23.2357-23.4008l-2.7214,41.165
		c4.2001-2.5247,9.1284-4.1492,13.5563-5.6067C72.2612,257.2935,76.9125,255.761,79.0436,253.4093z"/>
	<path d="M53.1868,269.6556l-1.4446,21.8517c-0.4502,6.8154,4.7099,12.7022,11.5215,13.1523
		c6.8134,0.4502,12.7031-4.705,13.1533-11.5205l2.2794-34.4783c-2.8776,1.6647-6.568,2.887-10.3685,4.1378
		C62.8094,264.6157,57.1939,266.4795,53.1868,269.6556z"/>
	<path d="M77.0154,199.4113c0-3.4648,0.6434-5.9118,1.7176-7.6135c-8.1014-0.6548-16.468-2.1783-20.2065-2.9124l-1.975,29.8746
		c4.5163,3.1264,16.7869,12.065,23.3855,21.1343l1.5526-23.485C78.822,212.433,77.0154,205.2515,77.0154,199.4113z"/>
	<path d="M92.666,258.6601l2.2794,34.4791c0.4502,6.8155,6.3399,11.9707,13.1533,11.5205
		c6.8116-0.4501,11.9717-6.3369,11.5215-13.1523l-1.4447-21.8529c-4.007-3.1755-9.6218-5.0391-15.1396-6.8558
		C99.2347,261.5477,95.5438,260.3253,92.666,258.6601z"/>
	<path d="M91.8851,246.8477l0.4337,6.5598c2.1304,2.3527,6.7826,3.8856,11.9681,5.5924c4.4274,1.4573,9.355,3.0815,13.5549,5.6058
		l-2.7212-41.1624C107.4083,229.0147,95.1035,239.1389,91.8851,246.8477z"/>
	<path d="M92.6309,191.7978c1.0741,1.7017,1.7176,4.1487,1.7176,7.6135c0,5.8413-1.8073,13.0246-4.4755,17.0005l1.5526,23.4843
		c6.5976-9.069,18.8677-18.0076,23.3854-21.1351l-1.975-29.8752C109.0969,189.6199,100.7315,191.143,92.6309,191.7978z"/>
	<path d="M85.6817,67.6314c-7.3512,0-13.8781,3.5267-17.9841,8.9796h35.9689C99.5608,71.1581,93.0341,67.6314,85.6817,67.6314z"/>
	<path d="M63.1817,90.1314c0,12.4268,10.0743,22.5,22.5,22.5c12.4278,0,22.5-10.0732,22.5-22.5
		c0-3.4037-0.7598-6.6285-2.1125-9.5204H65.2946C63.9417,83.5029,63.1817,86.7277,63.1817,90.1314z M100.702,83.857
		c1.2427,0,2.25,1.0073,2.25,2.25c0,1.2426-1.0073,2.25-2.25,2.25c-1.2426,0-2.25-1.0074-2.25-2.25
		C98.452,84.8643,99.4594,83.857,100.702,83.857z M93.1916,83.857c1.2426,0,2.25,1.0073,2.25,2.25c0,1.2426-1.0074,2.25-2.25,2.25
		c-1.2427,0-2.25-1.0074-2.25-2.25C90.9416,84.8643,91.9489,83.857,93.1916,83.857z M85.6812,83.857c1.2426,0,2.25,1.0073,2.25,2.25
		c0,1.2426-1.0074,2.25-2.25,2.25c-1.2427,0-2.25-1.0074-2.25-2.25C83.4312,84.8643,84.4385,83.857,85.6812,83.857z M78.1707,83.857
		c1.2427,0,2.25,1.0073,2.25,2.25c0,1.2426-1.0073,2.25-2.25,2.25c-1.2426,0-2.25-1.0074-2.25-2.25
		C75.9207,84.8643,76.9281,83.857,78.1707,83.857z M70.6603,83.857c1.2426,0,2.25,1.0073,2.25,2.25c0,1.2426-1.0074,2.25-2.25,2.25
		c-1.2427,0-2.25-1.0074-2.25-2.25C68.4103,84.8643,69.4177,83.857,70.6603,83.857z"/>
</g>
</svg>
